<svg xmlns="http://www.w3.org/2000/svg" xmlns:xlink="http://www.w3.org/1999/xlink" width="500" zoomAndPan="magnify" viewBox="0 0 375 374.999991" height="500" preserveAspectRatio="xMidYMid meet" version="1.2"><defs><clipPath id="28aaaed379"><path d="M 6.046875 131.179688 L 118.546875 131.179688 L 118.546875 242 L 6.046875 242 Z M 6.046875 131.179688 "/></clipPath></defs><g id="c5ffb34edc"><rect x="0" width="375" y="0" height="374.999991" style="fill:#ffffff;fill-opacity:1;stroke:none;"/><rect x="0" width="375" y="0" height="374.999991" style="fill:#ffffff;fill-opacity:1;stroke:none;"/><path style=" stroke:none;fill-rule:evenodd;fill:#000000;fill-opacity:1;" d="M 78.265625 168.417969 L 97.914062 202.117188 L 85.585938 223.488281 L 66.03125 189.984375 L 39.355469 189.984375 L 51.835938 168.417969 Z M 78.265625 168.417969 "/><g clip-rule="nonzero" clip-path="url(#28aaaed379)"><path style="fill:none;stroke-width:10;stroke-linecap:square;stroke-linejoin:miter;stroke:#000000;stroke-opacity:1;stroke-miterlimit:3;" d="M 155.597731 181.699575 L 74.398141 181.699575 L 33.798346 111.40134 L 74.398141 41.103105 L 155.597731 41.103105 L 195.203602 109.699743 " transform="matrix(0.491266,0,0,0.491266,6.048354,131.178522)"/></g><g style="fill:#000000;fill-opacity:1;"><g transform="translate(118.702572, 211.178876)"><path style="stroke:none" d="M 35.421875 -12.75 C 35.421875 -11.238281 35.210938 -9.867188 34.796875 -8.640625 C 34.378906 -7.410156 33.800781 -6.320312 33.0625 -5.375 C 32.332031 -4.4375 31.457031 -3.628906 30.4375 -2.953125 C 29.414062 -2.273438 28.289062 -1.71875 27.0625 -1.28125 C 25.84375 -0.84375 24.535156 -0.519531 23.140625 -0.3125 C 21.753906 -0.101562 20.207031 0 18.5 0 L 7.1875 0 C 6.46875 0 5.859375 -0.210938 5.359375 -0.640625 C 4.867188 -1.066406 4.625 -1.765625 4.625 -2.734375 L 4.625 -39.78125 C 4.625 -40.75 4.867188 -41.445312 5.359375 -41.875 C 5.859375 -42.300781 6.46875 -42.515625 7.1875 -42.515625 L 17.875 -42.515625 C 20.476562 -42.515625 22.679688 -42.296875 24.484375 -41.859375 C 26.296875 -41.421875 27.816406 -40.753906 29.046875 -39.859375 C 30.285156 -38.972656 31.234375 -37.851562 31.890625 -36.5 C 32.554688 -35.144531 32.890625 -33.546875 32.890625 -31.703125 C 32.890625 -30.671875 32.753906 -29.703125 32.484375 -28.796875 C 32.222656 -27.890625 31.835938 -27.0625 31.328125 -26.3125 C 30.828125 -25.570312 30.210938 -24.914062 29.484375 -24.34375 C 28.753906 -23.769531 27.914062 -23.3125 26.96875 -22.96875 C 28.175781 -22.75 29.285156 -22.363281 30.296875 -21.8125 C 31.316406 -21.269531 32.203125 -20.5625 32.953125 -19.6875 C 33.710938 -18.820312 34.3125 -17.8125 34.75 -16.65625 C 35.195312 -15.5 35.421875 -14.195312 35.421875 -12.75 Z M 24.25 -30.65625 C 24.25 -31.507812 24.113281 -32.273438 23.84375 -32.953125 C 23.582031 -33.628906 23.1875 -34.191406 22.65625 -34.640625 C 22.132812 -35.085938 21.472656 -35.429688 20.671875 -35.671875 C 19.878906 -35.910156 18.816406 -36.03125 17.484375 -36.03125 L 13.109375 -36.03125 L 13.109375 -25 L 17.9375 -25 C 19.1875 -25 20.179688 -25.144531 20.921875 -25.4375 C 21.671875 -25.738281 22.289062 -26.144531 22.78125 -26.65625 C 23.269531 -27.175781 23.632812 -27.78125 23.875 -28.46875 C 24.125 -29.15625 24.25 -29.882812 24.25 -30.65625 Z M 26.453125 -12.453125 C 26.453125 -13.429688 26.285156 -14.3125 25.953125 -15.09375 C 25.617188 -15.875 25.132812 -16.523438 24.5 -17.046875 C 23.875 -17.578125 23.066406 -17.984375 22.078125 -18.265625 C 21.085938 -18.546875 19.804688 -18.6875 18.234375 -18.6875 L 13.109375 -18.6875 L 13.109375 -6.609375 L 19.34375 -6.609375 C 20.550781 -6.609375 21.566406 -6.734375 22.390625 -6.984375 C 23.210938 -7.234375 23.921875 -7.601562 24.515625 -8.09375 C 25.117188 -8.59375 25.59375 -9.207031 25.9375 -9.9375 C 26.28125 -10.664062 26.453125 -11.503906 26.453125 -12.453125 Z M 26.453125 -12.453125 "/></g></g><g style="fill:#000000;fill-opacity:1;"><g transform="translate(156.411182, 211.178876)"><path style="stroke:none" d="M 29.109375 -1.015625 C 29.109375 -0.710938 29 -0.472656 28.78125 -0.296875 C 28.5625 -0.117188 28.210938 0.00390625 27.734375 0.078125 C 27.265625 0.160156 26.570312 0.203125 25.65625 0.203125 C 24.664062 0.203125 23.945312 0.160156 23.5 0.078125 C 23.050781 0.00390625 22.734375 -0.117188 22.546875 -0.296875 C 22.367188 -0.472656 22.28125 -0.710938 22.28125 -1.015625 L 22.28125 -3.34375 C 21.070312 -2.050781 19.691406 -1.046875 18.140625 -0.328125 C 16.597656 0.390625 14.890625 0.75 13.015625 0.75 C 11.453125 0.75 10.019531 0.546875 8.71875 0.140625 C 7.414062 -0.253906 6.285156 -0.851562 5.328125 -1.65625 C 4.378906 -2.457031 3.640625 -3.445312 3.109375 -4.625 C 2.585938 -5.8125 2.328125 -7.191406 2.328125 -8.765625 C 2.328125 -10.472656 2.660156 -11.957031 3.328125 -13.21875 C 4.003906 -14.476562 5.003906 -15.519531 6.328125 -16.34375 C 7.648438 -17.164062 9.296875 -17.773438 11.265625 -18.171875 C 13.234375 -18.566406 15.523438 -18.765625 18.140625 -18.765625 L 21 -18.765625 L 21 -20.53125 C 21 -21.445312 20.90625 -22.25 20.71875 -22.9375 C 20.53125 -23.632812 20.222656 -24.210938 19.796875 -24.671875 C 19.367188 -25.128906 18.796875 -25.46875 18.078125 -25.6875 C 17.367188 -25.90625 16.488281 -26.015625 15.4375 -26.015625 C 14.0625 -26.015625 12.832031 -25.859375 11.75 -25.546875 C 10.664062 -25.242188 9.707031 -24.90625 8.875 -24.53125 C 8.039062 -24.164062 7.34375 -23.828125 6.78125 -23.515625 C 6.226562 -23.210938 5.773438 -23.0625 5.421875 -23.0625 C 5.179688 -23.0625 4.96875 -23.132812 4.78125 -23.28125 C 4.59375 -23.4375 4.4375 -23.65625 4.3125 -23.9375 C 4.195312 -24.226562 4.101562 -24.582031 4.03125 -25 C 3.96875 -25.414062 3.9375 -25.875 3.9375 -26.375 C 3.9375 -27.0625 3.988281 -27.597656 4.09375 -27.984375 C 4.207031 -28.378906 4.414062 -28.734375 4.71875 -29.046875 C 5.03125 -29.367188 5.566406 -29.722656 6.328125 -30.109375 C 7.097656 -30.492188 8 -30.847656 9.03125 -31.171875 C 10.0625 -31.503906 11.179688 -31.773438 12.390625 -31.984375 C 13.609375 -32.191406 14.863281 -32.296875 16.15625 -32.296875 C 18.457031 -32.296875 20.421875 -32.070312 22.046875 -31.625 C 23.679688 -31.175781 25.023438 -30.484375 26.078125 -29.546875 C 27.128906 -28.617188 27.894531 -27.421875 28.375 -25.953125 C 28.863281 -24.484375 29.109375 -22.742188 29.109375 -20.734375 Z M 21 -13.5625 L 17.84375 -13.5625 C 16.5 -13.5625 15.359375 -13.460938 14.421875 -13.265625 C 13.484375 -13.078125 12.71875 -12.785156 12.125 -12.390625 C 11.53125 -11.992188 11.097656 -11.515625 10.828125 -10.953125 C 10.554688 -10.398438 10.421875 -9.757812 10.421875 -9.03125 C 10.421875 -7.800781 10.804688 -6.835938 11.578125 -6.140625 C 12.359375 -5.441406 13.4375 -5.09375 14.8125 -5.09375 C 15.976562 -5.09375 17.046875 -5.382812 18.015625 -5.96875 C 18.992188 -6.5625 19.988281 -7.429688 21 -8.578125 Z M 21 -13.5625 "/></g></g><g style="fill:#000000;fill-opacity:1;"><g transform="translate(189.619727, 211.178876)"><path style="stroke:none" d="M 31.375 -1.078125 C 31.375 -0.859375 31.3125 -0.664062 31.1875 -0.5 C 31.070312 -0.34375 30.851562 -0.210938 30.53125 -0.109375 C 30.21875 -0.015625 29.785156 0.0546875 29.234375 0.109375 C 28.691406 0.171875 27.984375 0.203125 27.109375 0.203125 C 26.203125 0.203125 25.46875 0.175781 24.90625 0.125 C 24.351562 0.0820312 23.894531 0.015625 23.53125 -0.078125 C 23.175781 -0.179688 22.898438 -0.316406 22.703125 -0.484375 C 22.503906 -0.660156 22.328125 -0.894531 22.171875 -1.1875 L 12.421875 -16.625 L 12.421875 -1.109375 C 12.421875 -0.890625 12.351562 -0.695312 12.21875 -0.53125 C 12.09375 -0.375 11.867188 -0.238281 11.546875 -0.125 C 11.234375 -0.0195312 10.8125 0.0546875 10.28125 0.109375 C 9.757812 0.171875 9.09375 0.203125 8.28125 0.203125 C 7.46875 0.203125 6.796875 0.171875 6.265625 0.109375 C 5.742188 0.0546875 5.320312 -0.0195312 5 -0.125 C 4.6875 -0.238281 4.460938 -0.375 4.328125 -0.53125 C 4.203125 -0.695312 4.140625 -0.890625 4.140625 -1.109375 L 4.140625 -44.3125 C 4.140625 -44.53125 4.203125 -44.726562 4.328125 -44.90625 C 4.460938 -45.082031 4.6875 -45.226562 5 -45.34375 C 5.320312 -45.46875 5.742188 -45.5625 6.265625 -45.625 C 6.796875 -45.695312 7.46875 -45.734375 8.28125 -45.734375 C 9.09375 -45.734375 9.757812 -45.695312 10.28125 -45.625 C 10.8125 -45.5625 11.234375 -45.46875 11.546875 -45.34375 C 11.867188 -45.226562 12.09375 -45.082031 12.21875 -44.90625 C 12.351562 -44.726562 12.421875 -44.53125 12.421875 -44.3125 L 12.421875 -18.59375 L 21.09375 -30.25 C 21.269531 -30.519531 21.46875 -30.753906 21.6875 -30.953125 C 21.90625 -31.148438 22.191406 -31.300781 22.546875 -31.40625 C 22.910156 -31.519531 23.359375 -31.601562 23.890625 -31.65625 C 24.429688 -31.707031 25.117188 -31.734375 25.953125 -31.734375 C 26.765625 -31.734375 27.445312 -31.707031 28 -31.65625 C 28.5625 -31.601562 29.007812 -31.519531 29.34375 -31.40625 C 29.6875 -31.300781 29.921875 -31.164062 30.046875 -31 C 30.179688 -30.832031 30.25 -30.628906 30.25 -30.390625 C 30.25 -30.054688 30.164062 -29.703125 30 -29.328125 C 29.84375 -28.960938 29.597656 -28.570312 29.265625 -28.15625 L 20.703125 -18.4375 L 30.625 -3.09375 C 30.882812 -2.65625 31.070312 -2.273438 31.1875 -1.953125 C 31.3125 -1.640625 31.375 -1.347656 31.375 -1.078125 Z M 31.375 -1.078125 "/></g></g><g style="fill:#000000;fill-opacity:1;"><g transform="translate(221.580056, 211.178876)"><path style="stroke:none" d="M 21.484375 -4.015625 C 21.484375 -3.046875 21.421875 -2.300781 21.296875 -1.78125 C 21.179688 -1.269531 21.023438 -0.910156 20.828125 -0.703125 C 20.628906 -0.492188 20.335938 -0.304688 19.953125 -0.140625 C 19.566406 0.015625 19.117188 0.148438 18.609375 0.265625 C 18.097656 0.390625 17.539062 0.484375 16.9375 0.546875 C 16.332031 0.617188 15.722656 0.65625 15.109375 0.65625 C 13.460938 0.65625 12.035156 0.445312 10.828125 0.03125 C 9.628906 -0.382812 8.632812 -1.023438 7.84375 -1.890625 C 7.0625 -2.753906 6.484375 -3.84375 6.109375 -5.15625 C 5.734375 -6.46875 5.546875 -8.023438 5.546875 -9.828125 L 5.546875 -24.84375 L 2.03125 -24.84375 C 1.613281 -24.84375 1.296875 -25.097656 1.078125 -25.609375 C 0.859375 -26.117188 0.75 -26.976562 0.75 -28.1875 C 0.75 -28.820312 0.773438 -29.359375 0.828125 -29.796875 C 0.890625 -30.234375 0.972656 -30.578125 1.078125 -30.828125 C 1.191406 -31.078125 1.328125 -31.253906 1.484375 -31.359375 C 1.648438 -31.472656 1.84375 -31.53125 2.0625 -31.53125 L 5.546875 -31.53125 L 5.546875 -38.078125 C 5.546875 -38.296875 5.601562 -38.492188 5.71875 -38.671875 C 5.84375 -38.847656 6.0625 -38.992188 6.375 -39.109375 C 6.695312 -39.234375 7.125 -39.320312 7.65625 -39.375 C 8.195312 -39.425781 8.863281 -39.453125 9.65625 -39.453125 C 10.46875 -39.453125 11.140625 -39.425781 11.671875 -39.375 C 12.210938 -39.320312 12.632812 -39.234375 12.9375 -39.109375 C 13.25 -38.992188 13.46875 -38.847656 13.59375 -38.671875 C 13.726562 -38.492188 13.796875 -38.296875 13.796875 -38.078125 L 13.796875 -31.53125 L 20.171875 -31.53125 C 20.390625 -31.53125 20.582031 -31.472656 20.75 -31.359375 C 20.914062 -31.253906 21.050781 -31.078125 21.15625 -30.828125 C 21.269531 -30.578125 21.351562 -30.234375 21.40625 -29.796875 C 21.457031 -29.359375 21.484375 -28.820312 21.484375 -28.1875 C 21.484375 -26.976562 21.375 -26.117188 21.15625 -25.609375 C 20.9375 -25.097656 20.617188 -24.84375 20.203125 -24.84375 L 13.796875 -24.84375 L 13.796875 -11.078125 C 13.796875 -9.472656 14.046875 -8.269531 14.546875 -7.46875 C 15.054688 -6.675781 15.957031 -6.28125 17.25 -6.28125 C 17.6875 -6.28125 18.078125 -6.316406 18.421875 -6.390625 C 18.773438 -6.460938 19.085938 -6.546875 19.359375 -6.640625 C 19.640625 -6.742188 19.867188 -6.832031 20.046875 -6.90625 C 20.234375 -6.988281 20.40625 -7.03125 20.5625 -7.03125 C 20.695312 -7.03125 20.820312 -6.988281 20.9375 -6.90625 C 21.0625 -6.832031 21.15625 -6.679688 21.21875 -6.453125 C 21.289062 -6.222656 21.351562 -5.910156 21.40625 -5.515625 C 21.457031 -5.117188 21.484375 -4.617188 21.484375 -4.015625 Z M 21.484375 -4.015625 "/></g></g><g style="fill:#000000;fill-opacity:1;"><g transform="translate(244.901583, 211.178876)"><path style="stroke:none" d="M 22.96875 -27.6875 C 22.96875 -26.90625 22.941406 -26.257812 22.890625 -25.75 C 22.847656 -25.25 22.78125 -24.851562 22.6875 -24.5625 C 22.601562 -24.28125 22.488281 -24.082031 22.34375 -23.96875 C 22.207031 -23.863281 22.03125 -23.8125 21.8125 -23.8125 C 21.632812 -23.8125 21.4375 -23.847656 21.21875 -23.921875 C 21 -24.003906 20.753906 -24.085938 20.484375 -24.171875 C 20.210938 -24.265625 19.910156 -24.347656 19.578125 -24.421875 C 19.253906 -24.503906 18.894531 -24.546875 18.5 -24.546875 C 18.039062 -24.546875 17.578125 -24.453125 17.109375 -24.265625 C 16.648438 -24.078125 16.175781 -23.785156 15.6875 -23.390625 C 15.195312 -22.992188 14.679688 -22.46875 14.140625 -21.8125 C 13.609375 -21.15625 13.035156 -20.34375 12.421875 -19.375 L 12.421875 -1.109375 C 12.421875 -0.890625 12.351562 -0.695312 12.21875 -0.53125 C 12.09375 -0.375 11.867188 -0.238281 11.546875 -0.125 C 11.234375 -0.0195312 10.8125 0.0546875 10.28125 0.109375 C 9.757812 0.171875 9.09375 0.203125 8.28125 0.203125 C 7.46875 0.203125 6.796875 0.171875 6.265625 0.109375 C 5.742188 0.0546875 5.320312 -0.0195312 5 -0.125 C 4.6875 -0.238281 4.460938 -0.375 4.328125 -0.53125 C 4.203125 -0.695312 4.140625 -0.890625 4.140625 -1.109375 L 4.140625 -30.421875 C 4.140625 -30.640625 4.191406 -30.832031 4.296875 -31 C 4.410156 -31.164062 4.609375 -31.300781 4.890625 -31.40625 C 5.179688 -31.519531 5.550781 -31.601562 6 -31.65625 C 6.445312 -31.707031 7.007812 -31.734375 7.6875 -31.734375 C 8.382812 -31.734375 8.960938 -31.707031 9.421875 -31.65625 C 9.890625 -31.601562 10.25 -31.519531 10.5 -31.40625 C 10.75 -31.300781 10.925781 -31.164062 11.03125 -31 C 11.144531 -30.832031 11.203125 -30.640625 11.203125 -30.421875 L 11.203125 -26.78125 C 11.972656 -27.875 12.695312 -28.773438 13.375 -29.484375 C 14.050781 -30.191406 14.695312 -30.753906 15.3125 -31.171875 C 15.925781 -31.585938 16.535156 -31.878906 17.140625 -32.046875 C 17.753906 -32.210938 18.367188 -32.296875 18.984375 -32.296875 C 19.273438 -32.296875 19.582031 -32.273438 19.90625 -32.234375 C 20.238281 -32.203125 20.578125 -32.148438 20.921875 -32.078125 C 21.273438 -32.003906 21.582031 -31.914062 21.84375 -31.8125 C 22.101562 -31.71875 22.296875 -31.613281 22.421875 -31.5 C 22.546875 -31.394531 22.632812 -31.273438 22.6875 -31.140625 C 22.738281 -31.015625 22.785156 -30.832031 22.828125 -30.59375 C 22.867188 -30.363281 22.898438 -30.019531 22.921875 -29.5625 C 22.953125 -29.101562 22.96875 -28.476562 22.96875 -27.6875 Z M 22.96875 -27.6875 "/></g></g><g style="fill:#000000;fill-opacity:1;"><g transform="translate(267.336141, 211.178876)"><path style="stroke:none" d="M 29.109375 -1.015625 C 29.109375 -0.710938 29 -0.472656 28.78125 -0.296875 C 28.5625 -0.117188 28.210938 0.00390625 27.734375 0.078125 C 27.265625 0.160156 26.570312 0.203125 25.65625 0.203125 C 24.664062 0.203125 23.945312 0.160156 23.5 0.078125 C 23.050781 0.00390625 22.734375 -0.117188 22.546875 -0.296875 C 22.367188 -0.472656 22.28125 -0.710938 22.28125 -1.015625 L 22.28125 -3.34375 C 21.070312 -2.050781 19.691406 -1.046875 18.140625 -0.328125 C 16.597656 0.390625 14.890625 0.75 13.015625 0.75 C 11.453125 0.75 10.019531 0.546875 8.71875 0.140625 C 7.414062 -0.253906 6.285156 -0.851562 5.328125 -1.65625 C 4.378906 -2.457031 3.640625 -3.445312 3.109375 -4.625 C 2.585938 -5.8125 2.328125 -7.191406 2.328125 -8.765625 C 2.328125 -10.472656 2.660156 -11.957031 3.328125 -13.21875 C 4.003906 -14.476562 5.003906 -15.519531 6.328125 -16.34375 C 7.648438 -17.164062 9.296875 -17.773438 11.265625 -18.171875 C 13.234375 -18.566406 15.523438 -18.765625 18.140625 -18.765625 L 21 -18.765625 L 21 -20.53125 C 21 -21.445312 20.90625 -22.25 20.71875 -22.9375 C 20.53125 -23.632812 20.222656 -24.210938 19.796875 -24.671875 C 19.367188 -25.128906 18.796875 -25.46875 18.078125 -25.6875 C 17.367188 -25.90625 16.488281 -26.015625 15.4375 -26.015625 C 14.0625 -26.015625 12.832031 -25.859375 11.75 -25.546875 C 10.664062 -25.242188 9.707031 -24.90625 8.875 -24.53125 C 8.039062 -24.164062 7.34375 -23.828125 6.78125 -23.515625 C 6.226562 -23.210938 5.773438 -23.0625 5.421875 -23.0625 C 5.179688 -23.0625 4.96875 -23.132812 4.78125 -23.28125 C 4.59375 -23.4375 4.4375 -23.65625 4.3125 -23.9375 C 4.195312 -24.226562 4.101562 -24.582031 4.03125 -25 C 3.96875 -25.414062 3.9375 -25.875 3.9375 -26.375 C 3.9375 -27.0625 3.988281 -27.597656 4.09375 -27.984375 C 4.207031 -28.378906 4.414062 -28.734375 4.71875 -29.046875 C 5.03125 -29.367188 5.566406 -29.722656 6.328125 -30.109375 C 7.097656 -30.492188 8 -30.847656 9.03125 -31.171875 C 10.0625 -31.503906 11.179688 -31.773438 12.390625 -31.984375 C 13.609375 -32.191406 14.863281 -32.296875 16.15625 -32.296875 C 18.457031 -32.296875 20.421875 -32.070312 22.046875 -31.625 C 23.679688 -31.175781 25.023438 -30.484375 26.078125 -29.546875 C 27.128906 -28.617188 27.894531 -27.421875 28.375 -25.953125 C 28.863281 -24.484375 29.109375 -22.742188 29.109375 -20.734375 Z M 21 -13.5625 L 17.84375 -13.5625 C 16.5 -13.5625 15.359375 -13.460938 14.421875 -13.265625 C 13.484375 -13.078125 12.71875 -12.785156 12.125 -12.390625 C 11.53125 -11.992188 11.097656 -11.515625 10.828125 -10.953125 C 10.554688 -10.398438 10.421875 -9.757812 10.421875 -9.03125 C 10.421875 -7.800781 10.804688 -6.835938 11.578125 -6.140625 C 12.359375 -5.441406 13.4375 -5.09375 14.8125 -5.09375 C 15.976562 -5.09375 17.046875 -5.382812 18.015625 -5.96875 C 18.992188 -6.5625 19.988281 -7.429688 21 -8.578125 Z M 21 -13.5625 "/></g></g><g style="fill:#000000;fill-opacity:1;"><g transform="translate(300.544686, 211.178876)"><path style="stroke:none" d="M 26.3125 -5.78125 C 26.3125 -5.207031 26.296875 -4.726562 26.265625 -4.34375 C 26.234375 -3.96875 26.1875 -3.644531 26.125 -3.375 C 26.070312 -3.113281 26.007812 -2.898438 25.9375 -2.734375 C 25.863281 -2.578125 25.691406 -2.367188 25.421875 -2.109375 C 25.160156 -1.859375 24.710938 -1.550781 24.078125 -1.1875 C 23.441406 -0.832031 22.71875 -0.507812 21.90625 -0.21875 C 21.101562 0.0625 20.222656 0.285156 19.265625 0.453125 C 18.316406 0.628906 17.335938 0.71875 16.328125 0.71875 C 14.066406 0.71875 12.066406 0.367188 10.328125 -0.328125 C 8.585938 -1.023438 7.125 -2.054688 5.9375 -3.421875 C 4.757812 -4.796875 3.867188 -6.46875 3.265625 -8.4375 C 2.660156 -10.414062 2.359375 -12.671875 2.359375 -15.203125 C 2.359375 -18.140625 2.722656 -20.675781 3.453125 -22.8125 C 4.191406 -24.945312 5.21875 -26.710938 6.53125 -28.109375 C 7.851562 -29.515625 9.410156 -30.554688 11.203125 -31.234375 C 12.992188 -31.921875 14.960938 -32.265625 17.109375 -32.265625 C 17.992188 -32.265625 18.851562 -32.1875 19.6875 -32.03125 C 20.53125 -31.875 21.316406 -31.664062 22.046875 -31.40625 C 22.785156 -31.144531 23.445312 -30.847656 24.03125 -30.515625 C 24.613281 -30.191406 25.023438 -29.90625 25.265625 -29.65625 C 25.503906 -29.414062 25.671875 -29.210938 25.765625 -29.046875 C 25.867188 -28.890625 25.945312 -28.675781 26 -28.40625 C 26.050781 -28.144531 26.09375 -27.820312 26.125 -27.4375 C 26.164062 -27.0625 26.1875 -26.597656 26.1875 -26.046875 C 26.1875 -24.773438 26.078125 -23.882812 25.859375 -23.375 C 25.640625 -22.863281 25.351562 -22.609375 25 -22.609375 C 24.625 -22.609375 24.226562 -22.757812 23.8125 -23.0625 C 23.394531 -23.363281 22.898438 -23.703125 22.328125 -24.078125 C 21.765625 -24.453125 21.085938 -24.789062 20.296875 -25.09375 C 19.515625 -25.40625 18.578125 -25.5625 17.484375 -25.5625 C 15.335938 -25.5625 13.691406 -24.734375 12.546875 -23.078125 C 11.410156 -21.421875 10.84375 -18.992188 10.84375 -15.796875 C 10.84375 -14.222656 10.984375 -12.832031 11.265625 -11.625 C 11.554688 -10.425781 11.976562 -9.421875 12.53125 -8.609375 C 13.09375 -7.796875 13.796875 -7.1875 14.640625 -6.78125 C 15.484375 -6.375 16.460938 -6.171875 17.578125 -6.171875 C 18.710938 -6.171875 19.691406 -6.335938 20.515625 -6.671875 C 21.335938 -7.015625 22.054688 -7.394531 22.671875 -7.8125 C 23.285156 -8.226562 23.800781 -8.609375 24.21875 -8.953125 C 24.632812 -9.296875 24.984375 -9.46875 25.265625 -9.46875 C 25.460938 -9.46875 25.625 -9.410156 25.75 -9.296875 C 25.882812 -9.191406 25.988281 -8.988281 26.0625 -8.6875 C 26.144531 -8.394531 26.207031 -8.015625 26.25 -7.546875 C 26.289062 -7.085938 26.3125 -6.5 26.3125 -5.78125 Z M 26.3125 -5.78125 "/></g></g><g style="fill:#000000;fill-opacity:1;"><g transform="translate(328.694771, 211.178876)"><path style="stroke:none" d="M 31.375 -1.078125 C 31.375 -0.859375 31.3125 -0.664062 31.1875 -0.5 C 31.070312 -0.34375 30.851562 -0.210938 30.53125 -0.109375 C 30.21875 -0.015625 29.785156 0.0546875 29.234375 0.109375 C 28.691406 0.171875 27.984375 0.203125 27.109375 0.203125 C 26.203125 0.203125 25.46875 0.175781 24.90625 0.125 C 24.351562 0.0820312 23.894531 0.015625 23.53125 -0.078125 C 23.175781 -0.179688 22.898438 -0.316406 22.703125 -0.484375 C 22.503906 -0.660156 22.328125 -0.894531 22.171875 -1.1875 L 12.421875 -16.625 L 12.421875 -1.109375 C 12.421875 -0.890625 12.351562 -0.695312 12.21875 -0.53125 C 12.09375 -0.375 11.867188 -0.238281 11.546875 -0.125 C 11.234375 -0.0195312 10.8125 0.0546875 10.28125 0.109375 C 9.757812 0.171875 9.09375 0.203125 8.28125 0.203125 C 7.46875 0.203125 6.796875 0.171875 6.265625 0.109375 C 5.742188 0.0546875 5.320312 -0.0195312 5 -0.125 C 4.6875 -0.238281 4.460938 -0.375 4.328125 -0.53125 C 4.203125 -0.695312 4.140625 -0.890625 4.140625 -1.109375 L 4.140625 -44.3125 C 4.140625 -44.53125 4.203125 -44.726562 4.328125 -44.90625 C 4.460938 -45.082031 4.6875 -45.226562 5 -45.34375 C 5.320312 -45.46875 5.742188 -45.5625 6.265625 -45.625 C 6.796875 -45.695312 7.46875 -45.734375 8.28125 -45.734375 C 9.09375 -45.734375 9.757812 -45.695312 10.28125 -45.625 C 10.8125 -45.5625 11.234375 -45.46875 11.546875 -45.34375 C 11.867188 -45.226562 12.09375 -45.082031 12.21875 -44.90625 C 12.351562 -44.726562 12.421875 -44.53125 12.421875 -44.3125 L 12.421875 -18.59375 L 21.09375 -30.25 C 21.269531 -30.519531 21.46875 -30.753906 21.6875 -30.953125 C 21.90625 -31.148438 22.191406 -31.300781 22.546875 -31.40625 C 22.910156 -31.519531 23.359375 -31.601562 23.890625 -31.65625 C 24.429688 -31.707031 25.117188 -31.734375 25.953125 -31.734375 C 26.765625 -31.734375 27.445312 -31.707031 28 -31.65625 C 28.5625 -31.601562 29.007812 -31.519531 29.34375 -31.40625 C 29.6875 -31.300781 29.921875 -31.164062 30.046875 -31 C 30.179688 -30.832031 30.25 -30.628906 30.25 -30.390625 C 30.25 -30.054688 30.164062 -29.703125 30 -29.328125 C 29.84375 -28.960938 29.597656 -28.570312 29.265625 -28.15625 L 20.703125 -18.4375 L 30.625 -3.09375 C 30.882812 -2.65625 31.070312 -2.273438 31.1875 -1.953125 C 31.3125 -1.640625 31.375 -1.347656 31.375 -1.078125 Z M 31.375 -1.078125 "/></g></g></g></svg>