<svg xmlns="http://www.w3.org/2000/svg" xmlns:xlink="http://www.w3.org/1999/xlink" width="1920" zoomAndPan="magnify" viewBox="0 0 1440 809.999993" height="1080" preserveAspectRatio="xMidYMid meet" version="1.2"><defs><clipPath id="9d101d61ab"><path d="M 0 191.261719 L 369 191.261719 L 369 553 L 0 553 Z M 0 191.261719 "/></clipPath></defs><g id="3d8d28599a"><rect x="0" width="1440" y="0" height="809.999993" style="fill:#ffffff;fill-opacity:1;stroke:none;"/><rect x="0" width="1440" y="0" height="809.999993" style="fill:#ffffff;fill-opacity:1;stroke:none;"/><path style=" stroke:none;fill-rule:evenodd;fill:#000000;fill-opacity:1;" d="M 236.867188 313.402344 L 301.324219 423.941406 L 260.878906 494.035156 L 196.746094 384.140625 L 109.25 384.140625 L 150.179688 313.402344 Z M 236.867188 313.402344 "/><g clip-rule="nonzero" clip-path="url(#9d101d61ab)"><path style="fill:none;stroke-width:10;stroke-linecap:square;stroke-linejoin:miter;stroke:#000000;stroke-opacity:1;stroke-miterlimit:3;" d="M 155.599964 181.698935 L 74.398822 181.698935 L 33.800675 111.399438 L 74.398822 41.099942 L 155.599964 41.099942 L 195.199339 109.700071 " transform="matrix(1.611354,0,0,1.611354,0.00000622222,191.261744)"/></g><g style="fill:#000000;fill-opacity:1;"><g transform="translate(361.175731, 498.837242)"><path style="stroke:none" d="M 147.6875 -53.453125 C 147.6875 -47.597656 146.941406 -42.195312 145.453125 -37.25 C 143.960938 -32.300781 141.875 -27.859375 139.1875 -23.921875 C 136.5 -19.984375 133.253906 -16.523438 129.453125 -13.546875 C 125.660156 -10.566406 121.382812 -8.066406 116.625 -6.046875 C 111.875 -4.035156 106.785156 -2.523438 101.359375 -1.515625 C 95.929688 -0.503906 89.710938 0 82.703125 0 L 34 0 C 31.789062 0 29.703125 -0.742188 27.734375 -2.234375 C 25.765625 -3.722656 24.78125 -6.34375 24.78125 -10.09375 L 24.78125 -176.359375 C 24.78125 -180.109375 25.765625 -182.726562 27.734375 -184.21875 C 29.703125 -185.707031 31.789062 -186.453125 34 -186.453125 L 76.359375 -186.453125 C 87.503906 -186.453125 96.628906 -185.394531 103.734375 -183.28125 C 110.847656 -181.164062 116.78125 -178.085938 121.53125 -174.046875 C 126.289062 -170.015625 129.867188 -165.066406 132.265625 -159.203125 C 134.671875 -153.347656 135.875 -146.722656 135.875 -139.328125 C 135.875 -134.910156 135.34375 -130.6875 134.28125 -126.65625 C 133.226562 -122.625 131.671875 -118.898438 129.609375 -115.484375 C 127.546875 -112.078125 124.953125 -109.023438 121.828125 -106.328125 C 118.703125 -103.640625 115.125 -101.429688 111.09375 -99.703125 C 116.1875 -98.742188 120.941406 -96.988281 125.359375 -94.4375 C 129.773438 -91.894531 133.640625 -88.65625 136.953125 -84.71875 C 140.265625 -80.78125 142.878906 -76.171875 144.796875 -70.890625 C 146.722656 -65.609375 147.6875 -59.796875 147.6875 -53.453125 Z M 110.375 -136.890625 C 110.375 -141.398438 109.75 -145.476562 108.5 -149.125 C 107.25 -152.78125 105.28125 -155.878906 102.59375 -158.421875 C 99.90625 -160.972656 96.398438 -162.921875 92.078125 -164.265625 C 87.753906 -165.609375 82.035156 -166.28125 74.921875 -166.28125 L 49.28125 -166.28125 L 49.28125 -105.90625 L 77.515625 -105.90625 C 83.953125 -105.90625 89.140625 -106.742188 93.078125 -108.421875 C 97.015625 -110.109375 100.28125 -112.367188 102.875 -115.203125 C 105.46875 -118.035156 107.363281 -121.347656 108.5625 -125.140625 C 109.769531 -128.929688 110.375 -132.847656 110.375 -136.890625 Z M 121.609375 -52.015625 C 121.609375 -57.585938 120.71875 -62.484375 118.9375 -66.703125 C 117.164062 -70.929688 114.570312 -74.488281 111.15625 -77.375 C 107.75 -80.257812 103.472656 -82.445312 98.328125 -83.9375 C 93.191406 -85.425781 86.734375 -86.171875 78.953125 -86.171875 L 49.28125 -86.171875 L 49.28125 -20.453125 L 85.296875 -20.453125 C 90.960938 -20.453125 95.910156 -21.125 100.140625 -22.46875 C 104.367188 -23.820312 108.09375 -25.816406 111.3125 -28.453125 C 114.53125 -31.097656 117.050781 -34.390625 118.875 -38.328125 C 120.695312 -42.265625 121.609375 -46.828125 121.609375 -52.015625 Z M 121.609375 -52.015625 "/></g><g transform="translate(521.687189, 498.837242)"><path style="stroke:none" d="M 119.734375 -3.453125 C 119.734375 -2.304688 119.347656 -1.441406 118.578125 -0.859375 C 117.816406 -0.285156 116.757812 0.140625 115.40625 0.421875 C 114.0625 0.710938 112.09375 0.859375 109.5 0.859375 C 107.007812 0.859375 105.019531 0.710938 103.53125 0.421875 C 102.039062 0.140625 100.957031 -0.285156 100.28125 -0.859375 C 99.613281 -1.441406 99.28125 -2.304688 99.28125 -3.453125 L 99.28125 -16.421875 C 93.613281 -10.367188 87.296875 -5.660156 80.328125 -2.296875 C 73.367188 1.054688 66 2.734375 58.21875 2.734375 C 51.394531 2.734375 45.21875 1.84375 39.6875 0.0625 C 34.164062 -1.707031 29.457031 -4.273438 25.5625 -7.640625 C 21.675781 -11.003906 18.648438 -15.132812 16.484375 -20.03125 C 14.328125 -24.925781 13.25 -30.5 13.25 -36.75 C 13.25 -44.039062 14.738281 -50.375 17.71875 -55.75 C 20.695312 -61.132812 24.972656 -65.601562 30.546875 -69.15625 C 36.117188 -72.71875 42.9375 -75.382812 51 -77.15625 C 59.070312 -78.9375 68.148438 -79.828125 78.234375 -79.828125 L 96.109375 -79.828125 L 96.109375 -89.90625 C 96.109375 -94.90625 95.578125 -99.328125 94.515625 -103.171875 C 93.460938 -107.015625 91.757812 -110.207031 89.40625 -112.75 C 87.050781 -115.289062 84 -117.207031 80.25 -118.5 C 76.507812 -119.800781 71.898438 -120.453125 66.421875 -120.453125 C 60.566406 -120.453125 55.304688 -119.753906 50.640625 -118.359375 C 45.984375 -116.972656 41.898438 -115.4375 38.390625 -113.75 C 34.890625 -112.070312 31.960938 -110.535156 29.609375 -109.140625 C 27.253906 -107.753906 25.5 -107.0625 24.34375 -107.0625 C 23.582031 -107.0625 22.910156 -107.25 22.328125 -107.625 C 21.753906 -108.007812 21.25 -108.585938 20.8125 -109.359375 C 20.382812 -110.128906 20.070312 -111.113281 19.875 -112.3125 C 19.6875 -113.519531 19.59375 -114.84375 19.59375 -116.28125 C 19.59375 -118.675781 19.757812 -120.570312 20.09375 -121.96875 C 20.4375 -123.363281 21.253906 -124.6875 22.546875 -125.9375 C 23.847656 -127.1875 26.082031 -128.648438 29.25 -130.328125 C 32.414062 -132.003906 36.0625 -133.539062 40.1875 -134.9375 C 44.320312 -136.332031 48.835938 -137.484375 53.734375 -138.390625 C 58.640625 -139.304688 63.59375 -139.765625 68.59375 -139.765625 C 77.90625 -139.765625 85.828125 -138.707031 92.359375 -136.59375 C 98.890625 -134.476562 104.171875 -131.378906 108.203125 -127.296875 C 112.242188 -123.210938 115.175781 -118.144531 117 -112.09375 C 118.820312 -106.050781 119.734375 -98.992188 119.734375 -90.921875 Z M 96.109375 -62.671875 L 75.796875 -62.671875 C 69.265625 -62.671875 63.59375 -62.117188 58.78125 -61.015625 C 53.976562 -59.910156 49.992188 -58.273438 46.828125 -56.109375 C 43.660156 -53.953125 41.332031 -51.359375 39.84375 -48.328125 C 38.351562 -45.304688 37.609375 -41.828125 37.609375 -37.890625 C 37.609375 -31.171875 39.742188 -25.816406 44.015625 -21.828125 C 48.296875 -17.835938 54.273438 -15.84375 61.953125 -15.84375 C 68.203125 -15.84375 73.988281 -17.425781 79.3125 -20.59375 C 84.644531 -23.769531 90.242188 -28.625 96.109375 -35.15625 Z M 96.109375 -62.671875 "/></g><g transform="translate(663.035252, 498.837242)"><path style="stroke:none" d="M 128.53125 -3.75 C 128.53125 -2.976562 128.335938 -2.300781 127.953125 -1.71875 C 127.566406 -1.144531 126.914062 -0.664062 126 -0.28125 C 125.09375 0.09375 123.820312 0.375 122.1875 0.5625 C 120.550781 0.757812 118.484375 0.859375 115.984375 0.859375 C 113.390625 0.859375 111.253906 0.785156 109.578125 0.640625 C 107.898438 0.503906 106.484375 0.269531 105.328125 -0.0625 C 104.171875 -0.40625 103.234375 -0.890625 102.515625 -1.515625 C 101.796875 -2.140625 101.148438 -2.882812 100.578125 -3.75 L 45.8125 -75.5 L 45.8125 -3.609375 C 45.8125 -2.835938 45.617188 -2.1875 45.234375 -1.65625 C 44.859375 -1.125 44.238281 -0.664062 43.375 -0.28125 C 42.507812 0.09375 41.304688 0.375 39.765625 0.5625 C 38.234375 0.757812 36.265625 0.859375 33.859375 0.859375 C 31.554688 0.859375 29.632812 0.757812 28.09375 0.5625 C 26.5625 0.375 25.335938 0.09375 24.421875 -0.28125 C 23.503906 -0.664062 22.878906 -1.125 22.546875 -1.65625 C 22.210938 -2.1875 22.046875 -2.835938 22.046875 -3.609375 L 22.046875 -196.109375 C 22.046875 -196.867188 22.210938 -197.535156 22.546875 -198.109375 C 22.878906 -198.691406 23.503906 -199.175781 24.421875 -199.5625 C 25.335938 -199.945312 26.5625 -200.234375 28.09375 -200.421875 C 29.632812 -200.617188 31.554688 -200.71875 33.859375 -200.71875 C 36.265625 -200.71875 38.234375 -200.617188 39.765625 -200.421875 C 41.304688 -200.234375 42.507812 -199.945312 43.375 -199.5625 C 44.238281 -199.175781 44.859375 -198.691406 45.234375 -198.109375 C 45.617188 -197.535156 45.8125 -196.867188 45.8125 -196.109375 L 45.8125 -78.8125 L 94.8125 -132.703125 C 95.582031 -133.660156 96.398438 -134.453125 97.265625 -135.078125 C 98.128906 -135.703125 99.160156 -136.226562 100.359375 -136.65625 C 101.554688 -137.09375 102.972656 -137.382812 104.609375 -137.53125 C 106.242188 -137.675781 108.210938 -137.75 110.515625 -137.75 C 112.921875 -137.75 114.9375 -137.675781 116.5625 -137.53125 C 118.195312 -137.382812 119.519531 -137.144531 120.53125 -136.8125 C 121.539062 -136.476562 122.257812 -136.046875 122.6875 -135.515625 C 123.125 -134.984375 123.34375 -134.285156 123.34375 -133.421875 C 123.34375 -132.273438 123.03125 -131.125 122.40625 -129.96875 C 121.78125 -128.8125 120.75 -127.46875 119.3125 -125.9375 L 72.328125 -78.953125 L 125.0625 -10.515625 C 126.3125 -8.878906 127.203125 -7.554688 127.734375 -6.546875 C 128.265625 -5.546875 128.53125 -4.613281 128.53125 -3.75 Z M 128.53125 -3.75 "/></g></g><g style="fill:#000000;fill-opacity:1;"><g transform="translate(795.738182, 498.837242)"><path style="stroke:none" d="M 89.484375 -13.109375 C 89.484375 -10.328125 89.289062 -8.117188 88.90625 -6.484375 C 88.519531 -4.847656 87.941406 -3.644531 87.171875 -2.875 C 86.398438 -2.113281 85.242188 -1.394531 83.703125 -0.71875 C 82.171875 -0.0507812 80.421875 0.492188 78.453125 0.921875 C 76.484375 1.359375 74.394531 1.722656 72.1875 2.015625 C 69.976562 2.304688 67.769531 2.453125 65.5625 2.453125 C 58.832031 2.453125 53.066406 1.566406 48.265625 -0.203125 C 43.460938 -1.984375 39.523438 -4.675781 36.453125 -8.28125 C 33.378906 -11.882812 31.144531 -16.445312 29.75 -21.96875 C 28.363281 -27.5 27.671875 -34.007812 27.671875 -41.5 L 27.671875 -117.28125 L 9.515625 -117.28125 C 8.066406 -117.28125 6.910156 -118.050781 6.046875 -119.59375 C 5.179688 -121.132812 4.75 -123.632812 4.75 -127.09375 C 4.75 -128.914062 4.867188 -130.445312 5.109375 -131.6875 C 5.347656 -132.9375 5.660156 -133.96875 6.046875 -134.78125 C 6.429688 -135.601562 6.9375 -136.179688 7.5625 -136.515625 C 8.1875 -136.859375 8.882812 -137.03125 9.65625 -137.03125 L 27.671875 -137.03125 L 27.671875 -167.859375 C 27.671875 -168.535156 27.835938 -169.160156 28.171875 -169.734375 C 28.503906 -170.304688 29.125 -170.804688 30.03125 -171.234375 C 30.945312 -171.671875 32.171875 -171.984375 33.703125 -172.171875 C 35.242188 -172.367188 37.171875 -172.46875 39.484375 -172.46875 C 41.878906 -172.46875 43.84375 -172.367188 45.375 -172.171875 C 46.914062 -171.984375 48.117188 -171.671875 48.984375 -171.234375 C 49.847656 -170.804688 50.472656 -170.304688 50.859375 -169.734375 C 51.242188 -169.160156 51.4375 -168.535156 51.4375 -167.859375 L 51.4375 -137.03125 L 84.71875 -137.03125 C 85.488281 -137.03125 86.160156 -136.859375 86.734375 -136.515625 C 87.316406 -136.179688 87.820312 -135.601562 88.25 -134.78125 C 88.6875 -133.96875 89 -132.9375 89.1875 -131.6875 C 89.382812 -130.445312 89.484375 -128.914062 89.484375 -127.09375 C 89.484375 -123.632812 89.050781 -121.132812 88.1875 -119.59375 C 87.320312 -118.050781 86.164062 -117.28125 84.71875 -117.28125 L 51.4375 -117.28125 L 51.4375 -44.953125 C 51.4375 -36.023438 52.753906 -29.273438 55.390625 -24.703125 C 58.035156 -20.140625 62.769531 -17.859375 69.59375 -17.859375 C 71.800781 -17.859375 73.769531 -18.070312 75.5 -18.5 C 77.226562 -18.9375 78.765625 -19.394531 80.109375 -19.875 C 81.453125 -20.363281 82.601562 -20.820312 83.5625 -21.25 C 84.53125 -21.6875 85.398438 -21.90625 86.171875 -21.90625 C 86.648438 -21.90625 87.101562 -21.785156 87.53125 -21.546875 C 87.96875 -21.304688 88.304688 -20.847656 88.546875 -20.171875 C 88.785156 -19.492188 89 -18.578125 89.1875 -17.421875 C 89.382812 -16.273438 89.484375 -14.835938 89.484375 -13.109375 Z M 89.484375 -13.109375 "/></g></g><g style="fill:#000000;fill-opacity:1;"><g transform="translate(894.580981, 498.837242)"><path style="stroke:none" d="M 97.84375 -124.78125 C 97.84375 -122.664062 97.789062 -120.882812 97.6875 -119.4375 C 97.59375 -118 97.398438 -116.875 97.109375 -116.0625 C 96.828125 -115.25 96.46875 -114.625 96.03125 -114.1875 C 95.601562 -113.757812 95.003906 -113.546875 94.234375 -113.546875 C 93.460938 -113.546875 92.523438 -113.757812 91.421875 -114.1875 C 90.316406 -114.625 89.066406 -115.054688 87.671875 -115.484375 C 86.285156 -115.921875 84.726562 -116.328125 83 -116.703125 C 81.269531 -117.085938 79.394531 -117.28125 77.375 -117.28125 C 74.976562 -117.28125 72.625 -116.800781 70.3125 -115.84375 C 68.007812 -114.882812 65.582031 -113.300781 63.03125 -111.09375 C 60.488281 -108.882812 57.820312 -105.953125 55.03125 -102.296875 C 52.25 -98.648438 49.175781 -94.1875 45.8125 -88.90625 L 45.8125 -3.609375 C 45.8125 -2.835938 45.617188 -2.1875 45.234375 -1.65625 C 44.859375 -1.125 44.238281 -0.664062 43.375 -0.28125 C 42.507812 0.09375 41.304688 0.375 39.765625 0.5625 C 38.234375 0.757812 36.265625 0.859375 33.859375 0.859375 C 31.554688 0.859375 29.632812 0.757812 28.09375 0.5625 C 26.5625 0.375 25.335938 0.09375 24.421875 -0.28125 C 23.503906 -0.664062 22.878906 -1.125 22.546875 -1.65625 C 22.210938 -2.1875 22.046875 -2.835938 22.046875 -3.609375 L 22.046875 -133.28125 C 22.046875 -134.050781 22.1875 -134.695312 22.46875 -135.21875 C 22.757812 -135.75 23.335938 -136.226562 24.203125 -136.65625 C 25.066406 -137.09375 26.171875 -137.382812 27.515625 -137.53125 C 28.859375 -137.675781 30.640625 -137.75 32.859375 -137.75 C 34.960938 -137.75 36.710938 -137.675781 38.109375 -137.53125 C 39.503906 -137.382812 40.582031 -137.09375 41.34375 -136.65625 C 42.113281 -136.226562 42.664062 -135.75 43 -135.21875 C 43.34375 -134.695312 43.515625 -134.050781 43.515625 -133.28125 L 43.515625 -114.40625 C 47.066406 -119.59375 50.40625 -123.816406 53.53125 -127.078125 C 56.65625 -130.347656 59.609375 -132.921875 62.390625 -134.796875 C 65.171875 -136.671875 67.929688 -137.96875 70.671875 -138.6875 C 73.410156 -139.40625 76.171875 -139.765625 78.953125 -139.765625 C 80.203125 -139.765625 81.617188 -139.691406 83.203125 -139.546875 C 84.796875 -139.398438 86.457031 -139.132812 88.1875 -138.75 C 89.914062 -138.375 91.472656 -137.941406 92.859375 -137.453125 C 94.253906 -136.972656 95.238281 -136.492188 95.8125 -136.015625 C 96.394531 -135.535156 96.78125 -135.078125 96.96875 -134.640625 C 97.164062 -134.210938 97.332031 -133.660156 97.46875 -132.984375 C 97.613281 -132.316406 97.710938 -131.332031 97.765625 -130.03125 C 97.816406 -128.738281 97.84375 -126.988281 97.84375 -124.78125 Z M 97.84375 -124.78125 "/></g></g><g style="fill:#000000;fill-opacity:1;"><g transform="translate(991.406553, 498.837242)"><path style="stroke:none" d="M 119.734375 -3.453125 C 119.734375 -2.304688 119.347656 -1.441406 118.578125 -0.859375 C 117.816406 -0.285156 116.757812 0.140625 115.40625 0.421875 C 114.0625 0.710938 112.09375 0.859375 109.5 0.859375 C 107.007812 0.859375 105.019531 0.710938 103.53125 0.421875 C 102.039062 0.140625 100.957031 -0.285156 100.28125 -0.859375 C 99.613281 -1.441406 99.28125 -2.304688 99.28125 -3.453125 L 99.28125 -16.421875 C 93.613281 -10.367188 87.296875 -5.660156 80.328125 -2.296875 C 73.367188 1.054688 66 2.734375 58.21875 2.734375 C 51.394531 2.734375 45.21875 1.84375 39.6875 0.0625 C 34.164062 -1.707031 29.457031 -4.273438 25.5625 -7.640625 C 21.675781 -11.003906 18.648438 -15.132812 16.484375 -20.03125 C 14.328125 -24.925781 13.25 -30.5 13.25 -36.75 C 13.25 -44.039062 14.738281 -50.375 17.71875 -55.75 C 20.695312 -61.132812 24.972656 -65.601562 30.546875 -69.15625 C 36.117188 -72.71875 42.9375 -75.382812 51 -77.15625 C 59.070312 -78.9375 68.148438 -79.828125 78.234375 -79.828125 L 96.109375 -79.828125 L 96.109375 -89.90625 C 96.109375 -94.90625 95.578125 -99.328125 94.515625 -103.171875 C 93.460938 -107.015625 91.757812 -110.207031 89.40625 -112.75 C 87.050781 -115.289062 84 -117.207031 80.25 -118.5 C 76.507812 -119.800781 71.898438 -120.453125 66.421875 -120.453125 C 60.566406 -120.453125 55.304688 -119.753906 50.640625 -118.359375 C 45.984375 -116.972656 41.898438 -115.4375 38.390625 -113.75 C 34.890625 -112.070312 31.960938 -110.535156 29.609375 -109.140625 C 27.253906 -107.753906 25.5 -107.0625 24.34375 -107.0625 C 23.582031 -107.0625 22.910156 -107.25 22.328125 -107.625 C 21.753906 -108.007812 21.25 -108.585938 20.8125 -109.359375 C 20.382812 -110.128906 20.070312 -111.113281 19.875 -112.3125 C 19.6875 -113.519531 19.59375 -114.84375 19.59375 -116.28125 C 19.59375 -118.675781 19.757812 -120.570312 20.09375 -121.96875 C 20.4375 -123.363281 21.253906 -124.6875 22.546875 -125.9375 C 23.847656 -127.1875 26.082031 -128.648438 29.25 -130.328125 C 32.414062 -132.003906 36.0625 -133.539062 40.1875 -134.9375 C 44.320312 -136.332031 48.835938 -137.484375 53.734375 -138.390625 C 58.640625 -139.304688 63.59375 -139.765625 68.59375 -139.765625 C 77.90625 -139.765625 85.828125 -138.707031 92.359375 -136.59375 C 98.890625 -134.476562 104.171875 -131.378906 108.203125 -127.296875 C 112.242188 -123.210938 115.175781 -118.144531 117 -112.09375 C 118.820312 -106.050781 119.734375 -98.992188 119.734375 -90.921875 Z M 96.109375 -62.671875 L 75.796875 -62.671875 C 69.265625 -62.671875 63.59375 -62.117188 58.78125 -61.015625 C 53.976562 -59.910156 49.992188 -58.273438 46.828125 -56.109375 C 43.660156 -53.953125 41.332031 -51.359375 39.84375 -48.328125 C 38.351562 -45.304688 37.609375 -41.828125 37.609375 -37.890625 C 37.609375 -31.171875 39.742188 -25.816406 44.015625 -21.828125 C 48.296875 -17.835938 54.273438 -15.84375 61.953125 -15.84375 C 68.203125 -15.84375 73.988281 -17.425781 79.3125 -20.59375 C 84.644531 -23.769531 90.242188 -28.625 96.109375 -35.15625 Z M 96.109375 -62.671875 "/></g></g><g style="fill:#000000;fill-opacity:1;"><g transform="translate(1132.754583, 498.837242)"><path style="stroke:none" d="M 115.265625 -23.34375 C 115.265625 -21.707031 115.21875 -20.289062 115.125 -19.09375 C 115.03125 -17.894531 114.863281 -16.882812 114.625 -16.0625 C 114.382812 -15.25 114.09375 -14.53125 113.75 -13.90625 C 113.414062 -13.28125 112.648438 -12.363281 111.453125 -11.15625 C 110.253906 -9.957031 108.210938 -8.46875 105.328125 -6.6875 C 102.441406 -4.914062 99.195312 -3.332031 95.59375 -1.9375 C 92 -0.550781 88.085938 0.570312 83.859375 1.4375 C 79.628906 2.300781 75.257812 2.734375 70.75 2.734375 C 61.425781 2.734375 53.160156 1.195312 45.953125 -1.875 C 38.753906 -4.945312 32.726562 -9.4375 27.875 -15.34375 C 23.03125 -21.25 19.332031 -28.5 16.78125 -37.09375 C 14.238281 -45.695312 12.96875 -55.617188 12.96875 -66.859375 C 12.96875 -79.628906 14.523438 -90.601562 17.640625 -99.78125 C 20.765625 -108.957031 25.039062 -116.472656 30.46875 -122.328125 C 35.894531 -128.191406 42.28125 -132.539062 49.625 -135.375 C 56.976562 -138.207031 64.929688 -139.625 73.484375 -139.625 C 77.617188 -139.625 81.628906 -139.238281 85.515625 -138.46875 C 89.410156 -137.695312 92.988281 -136.6875 96.25 -135.4375 C 99.519531 -134.1875 102.425781 -132.742188 104.96875 -131.109375 C 107.507812 -129.484375 109.359375 -128.09375 110.515625 -126.9375 C 111.671875 -125.789062 112.460938 -124.878906 112.890625 -124.203125 C 113.328125 -123.535156 113.6875 -122.742188 113.96875 -121.828125 C 114.257812 -120.910156 114.453125 -119.875 114.546875 -118.71875 C 114.640625 -117.570312 114.6875 -116.132812 114.6875 -114.40625 C 114.6875 -110.65625 114.253906 -108.035156 113.390625 -106.546875 C 112.523438 -105.054688 111.472656 -104.3125 110.234375 -104.3125 C 108.785156 -104.3125 107.125 -105.101562 105.25 -106.6875 C 103.382812 -108.28125 101.007812 -110.035156 98.125 -111.953125 C 95.238281 -113.878906 91.753906 -115.632812 87.671875 -117.21875 C 83.585938 -118.800781 78.765625 -119.59375 73.203125 -119.59375 C 61.765625 -119.59375 52.992188 -115.195312 46.890625 -106.40625 C 40.796875 -97.613281 37.75 -84.863281 37.75 -68.15625 C 37.75 -59.800781 38.539062 -52.476562 40.125 -46.1875 C 41.707031 -39.894531 44.035156 -34.632812 47.109375 -30.40625 C 50.191406 -26.175781 53.960938 -23.023438 58.421875 -20.953125 C 62.890625 -18.890625 68.007812 -17.859375 73.78125 -17.859375 C 79.25 -17.859375 84.046875 -18.722656 88.171875 -20.453125 C 92.304688 -22.179688 95.882812 -24.078125 98.90625 -26.140625 C 101.9375 -28.210938 104.484375 -30.085938 106.546875 -31.765625 C 108.617188 -33.453125 110.226562 -34.296875 111.375 -34.296875 C 112.050781 -34.296875 112.628906 -34.101562 113.109375 -33.71875 C 113.585938 -33.332031 113.992188 -32.679688 114.328125 -31.765625 C 114.671875 -30.859375 114.910156 -29.707031 115.046875 -28.3125 C 115.191406 -26.914062 115.265625 -25.257812 115.265625 -23.34375 Z M 115.265625 -23.34375 "/></g></g><g style="fill:#000000;fill-opacity:1;"><g transform="translate(1257.532806, 498.837242)"><path style="stroke:none" d="M 128.53125 -3.75 C 128.53125 -2.976562 128.335938 -2.300781 127.953125 -1.71875 C 127.566406 -1.144531 126.914062 -0.664062 126 -0.28125 C 125.09375 0.09375 123.820312 0.375 122.1875 0.5625 C 120.550781 0.757812 118.484375 0.859375 115.984375 0.859375 C 113.390625 0.859375 111.253906 0.785156 109.578125 0.640625 C 107.898438 0.503906 106.484375 0.269531 105.328125 -0.0625 C 104.171875 -0.40625 103.234375 -0.890625 102.515625 -1.515625 C 101.796875 -2.140625 101.148438 -2.882812 100.578125 -3.75 L 45.8125 -75.5 L 45.8125 -3.609375 C 45.8125 -2.835938 45.617188 -2.1875 45.234375 -1.65625 C 44.859375 -1.125 44.238281 -0.664062 43.375 -0.28125 C 42.507812 0.09375 41.304688 0.375 39.765625 0.5625 C 38.234375 0.757812 36.265625 0.859375 33.859375 0.859375 C 31.554688 0.859375 29.632812 0.757812 28.09375 0.5625 C 26.5625 0.375 25.335938 0.09375 24.421875 -0.28125 C 23.503906 -0.664062 22.878906 -1.125 22.546875 -1.65625 C 22.210938 -2.1875 22.046875 -2.835938 22.046875 -3.609375 L 22.046875 -196.109375 C 22.046875 -196.867188 22.210938 -197.535156 22.546875 -198.109375 C 22.878906 -198.691406 23.503906 -199.175781 24.421875 -199.5625 C 25.335938 -199.945312 26.5625 -200.234375 28.09375 -200.421875 C 29.632812 -200.617188 31.554688 -200.71875 33.859375 -200.71875 C 36.265625 -200.71875 38.234375 -200.617188 39.765625 -200.421875 C 41.304688 -200.234375 42.507812 -199.945312 43.375 -199.5625 C 44.238281 -199.175781 44.859375 -198.691406 45.234375 -198.109375 C 45.617188 -197.535156 45.8125 -196.867188 45.8125 -196.109375 L 45.8125 -78.8125 L 94.8125 -132.703125 C 95.582031 -133.660156 96.398438 -134.453125 97.265625 -135.078125 C 98.128906 -135.703125 99.160156 -136.226562 100.359375 -136.65625 C 101.554688 -137.09375 102.972656 -137.382812 104.609375 -137.53125 C 106.242188 -137.675781 108.210938 -137.75 110.515625 -137.75 C 112.921875 -137.75 114.9375 -137.675781 116.5625 -137.53125 C 118.195312 -137.382812 119.519531 -137.144531 120.53125 -136.8125 C 121.539062 -136.476562 122.257812 -136.046875 122.6875 -135.515625 C 123.125 -134.984375 123.34375 -134.285156 123.34375 -133.421875 C 123.34375 -132.273438 123.03125 -131.125 122.40625 -129.96875 C 121.78125 -128.8125 120.75 -127.46875 119.3125 -125.9375 L 72.328125 -78.953125 L 125.0625 -10.515625 C 126.3125 -8.878906 127.203125 -7.554688 127.734375 -6.546875 C 128.265625 -5.546875 128.53125 -4.613281 128.53125 -3.75 Z M 128.53125 -3.75 "/></g></g></g></svg>